<?xml version="1.0" encoding="UTF-8" standalone="no"?>
<!DOCTYPE svg PUBLIC "-//W3C//DTD SVG 1.1//EN" "http://www.w3.org/Graphics/SVG/1.1/DTD/svg11.dtd">
<svg width="100%" height="100%" viewBox="0 0 686 162" version="1.1" xmlns="http://www.w3.org/2000/svg" xmlns:xlink="http://www.w3.org/1999/xlink" xml:space="preserve" xmlns:serif="http://www.serif.com/" style="fill-rule:evenodd;clip-rule:evenodd;stroke-linejoin:round;stroke-miterlimit:2;">
    <g transform="matrix(1,0,0,1,-7551.45,-1499.97)">
        <g transform="matrix(0.940395,0,0,0.940395,6910.5,1829.95)">
            <path d="M720.03,-184.497L681.577,-184.497C681.577,-184.497 689.031,-204.92 692.89,-215.494C694.471,-219.828 697.663,-223.388 701.804,-225.439C701.804,-225.439 701.804,-225.439 701.804,-225.439C703.172,-226.118 704.678,-226.471 706.205,-226.471C706.205,-226.471 706.206,-226.471 706.206,-226.471C713.935,-226.471 720.21,-232.731 720.21,-240.441C720.21,-244.198 718.719,-247.612 716.296,-250.123C711.525,-255.057 709.99,-262.272 712.341,-268.713C714.132,-273.64 716.22,-279.376 718.325,-285.155C718.643,-286.027 718.618,-286.987 718.256,-287.841C717.744,-289.005 717.48,-290.292 717.48,-291.639C717.48,-295.532 719.681,-298.916 722.908,-300.62C723.721,-301.042 724.345,-301.752 724.659,-302.611C727.903,-311.429 730.271,-317.915 730.271,-317.915L756.34,-317.915C758.619,-317.915 760.721,-319.138 761.842,-321.116C761.842,-321.116 761.842,-321.116 761.842,-321.116C762.979,-323.127 763.768,-325.314 764.176,-327.586C765.329,-334.136 771.068,-339.118 777.963,-339.118C785.692,-339.118 791.967,-332.858 791.967,-325.149C791.967,-317.439 785.692,-311.179 777.963,-311.179C777.963,-311.179 777.963,-311.179 777.963,-311.179C776.436,-311.179 774.929,-310.826 773.562,-310.147C773.562,-310.147 773.562,-310.147 773.562,-310.147C771.79,-309.269 770.962,-307.204 771.638,-305.349C771.638,-305.349 778.603,-286.267 780.949,-279.838C781.379,-278.661 782.428,-277.819 783.672,-277.652C783.94,-277.638 784.177,-277.608 784.338,-277.574C788.538,-276.684 791.693,-272.959 791.693,-268.506C791.693,-266.245 790.88,-264.173 789.53,-262.563C788.557,-261.385 788.281,-259.781 788.805,-258.346C790.454,-253.795 793.674,-244.974 793.674,-244.974L796.286,-237.816C796.395,-237.864 796.505,-237.914 796.616,-237.967C796.731,-242 800.042,-245.239 804.104,-245.239C808.238,-245.239 811.595,-241.883 811.595,-237.748C811.595,-233.614 808.238,-230.257 804.104,-230.257C803.794,-230.257 803.489,-230.276 803.189,-230.312C801.908,-229.94 800.996,-229.597 800.428,-226.467L810.215,-199.653C810.283,-199.465 810.431,-199.316 810.619,-199.245C810.807,-199.175 811.017,-199.19 811.193,-199.287C811.833,-199.635 812.568,-199.828 813.348,-199.828C815.91,-199.828 817.989,-197.753 817.989,-195.197C817.989,-192.978 816.42,-191.121 814.329,-190.671C814.136,-190.631 813.97,-190.509 813.874,-190.337C813.777,-190.165 813.761,-189.96 813.829,-189.775C814.42,-188.131 815.736,-184.525 815.746,-184.497L777.292,-184.497L771.859,-199.09L739.098,-199.09L748.405,-224.522L762.663,-224.522L748.661,-263.297L720.03,-184.497ZM779.653,-308.631C782.215,-308.631 784.295,-306.557 784.295,-304.001C784.295,-301.445 782.215,-299.371 779.653,-299.371C777.091,-299.371 775.011,-301.445 775.011,-304.001C775.011,-306.557 777.091,-308.631 779.653,-308.631ZM751.493,-350.891C756.623,-350.891 760.787,-346.737 760.787,-341.62C760.787,-336.503 756.623,-332.349 751.493,-332.349C746.364,-332.349 742.199,-336.503 742.199,-341.62C742.199,-346.737 746.364,-350.891 751.493,-350.891Z" style="fill:url(#_Linear1);"/>
        </g>
        <g transform="matrix(1.02503,0,0,1.02503,2162.46,181.786)">
            <g transform="matrix(152.762,0,0,152.762,5388.24,1438.82)">
                <path d="M0.252,-0.8L0.252,-0.514C0.277,-0.525 0.307,-0.53 0.341,-0.53C0.419,-0.53 0.486,-0.503 0.541,-0.45C0.596,-0.396 0.623,-0.33 0.623,-0.252C0.623,-0.174 0.596,-0.108 0.541,-0.053C0.486,0.002 0.419,0.03 0.341,0.03C0.294,0.03 0.254,0.02 0.22,0L0.059,0L0.059,-0.8L0.252,-0.8ZM0.404,-0.313C0.387,-0.33 0.366,-0.339 0.341,-0.339C0.316,-0.339 0.295,-0.33 0.278,-0.313C0.261,-0.296 0.252,-0.275 0.252,-0.25C0.252,-0.225 0.261,-0.204 0.278,-0.188C0.295,-0.171 0.316,-0.162 0.341,-0.162C0.366,-0.162 0.387,-0.171 0.404,-0.188C0.421,-0.204 0.429,-0.225 0.429,-0.25C0.429,-0.275 0.421,-0.296 0.404,-0.313Z" style="fill:rgb(255,57,136);fill-rule:nonzero;"/>
            </g>
            <g transform="matrix(152.762,0,0,152.762,5487.84,1438.82)">
                <path d="M0.033,-0.123L0.192,-0.156C0.197,-0.137 0.209,-0.128 0.229,-0.128C0.25,-0.128 0.26,-0.137 0.26,-0.154C0.26,-0.163 0.256,-0.17 0.248,-0.174C0.24,-0.18 0.225,-0.185 0.203,-0.191C0.14,-0.207 0.094,-0.237 0.066,-0.281C0.052,-0.302 0.045,-0.329 0.045,-0.361C0.045,-0.408 0.063,-0.448 0.099,-0.481C0.135,-0.514 0.178,-0.53 0.229,-0.53C0.272,-0.53 0.311,-0.518 0.344,-0.493C0.377,-0.468 0.399,-0.436 0.408,-0.398L0.262,-0.365C0.256,-0.381 0.245,-0.389 0.228,-0.389C0.209,-0.389 0.2,-0.381 0.2,-0.365C0.2,-0.364 0.2,-0.362 0.201,-0.36C0.201,-0.357 0.203,-0.354 0.207,-0.35C0.211,-0.346 0.217,-0.343 0.224,-0.342C0.23,-0.341 0.242,-0.338 0.259,-0.335C0.276,-0.331 0.286,-0.328 0.291,-0.327C0.296,-0.326 0.304,-0.323 0.317,-0.32C0.33,-0.316 0.339,-0.313 0.344,-0.31C0.348,-0.307 0.355,-0.304 0.364,-0.299C0.372,-0.294 0.379,-0.288 0.385,-0.282C0.391,-0.276 0.397,-0.269 0.402,-0.261C0.423,-0.23 0.434,-0.196 0.434,-0.159C0.434,-0.107 0.414,-0.063 0.374,-0.025C0.334,0.011 0.286,0.03 0.229,0.03C0.18,0.03 0.137,0.015 0.101,-0.014C0.064,-0.043 0.042,-0.079 0.033,-0.123Z" style="fill:rgb(255,57,136);fill-rule:nonzero;"/>
            </g>
            <g transform="matrix(152.762,0,0,152.762,5558.42,1438.82)">
                <path d="M0.295,-0.5L0.402,-0.5L0.402,-0.377L0.295,-0.377L0.295,0L0.101,0L0.101,-0.377L0.039,-0.377L0.039,-0.5L0.101,-0.5L0.101,-0.8L0.295,-0.8L0.295,-0.5Z" style="fill:rgb(255,57,136);fill-rule:nonzero;"/>
            </g>
            <g transform="matrix(152.762,0,0,152.762,5623.65,1438.82)">
                <path d="M0.061,-0.5L0.181,-0.5C0.212,-0.52 0.248,-0.53 0.29,-0.53C0.346,-0.53 0.395,-0.512 0.438,-0.477L0.314,-0.328C0.307,-0.334 0.299,-0.337 0.29,-0.337C0.28,-0.337 0.272,-0.333 0.265,-0.326C0.258,-0.319 0.254,-0.31 0.254,-0.3L0.254,0L0.061,0L0.061,-0.5Z" style="fill:rgb(255,57,136);fill-rule:nonzero;"/>
            </g>
            <g transform="matrix(152.762,0,0,152.762,5685.82,1438.82)">
                <path d="M0.596,0L0.435,0C0.406,0.02 0.366,0.03 0.315,0.03C0.238,0.03 0.172,0.003 0.117,-0.052C0.062,-0.107 0.035,-0.173 0.035,-0.25C0.035,-0.327 0.062,-0.393 0.117,-0.448C0.172,-0.503 0.238,-0.53 0.315,-0.53C0.363,-0.53 0.403,-0.52 0.435,-0.5L0.596,-0.5L0.596,0ZM0.315,-0.338C0.291,-0.338 0.271,-0.329 0.254,-0.312C0.236,-0.295 0.228,-0.274 0.228,-0.25C0.228,-0.226 0.236,-0.205 0.254,-0.188C0.271,-0.171 0.291,-0.162 0.315,-0.162C0.34,-0.162 0.361,-0.171 0.378,-0.188C0.395,-0.205 0.403,-0.226 0.403,-0.25C0.403,-0.274 0.395,-0.295 0.378,-0.312C0.361,-0.329 0.34,-0.338 0.315,-0.338Z" style="fill:rgb(255,57,136);fill-rule:nonzero;"/>
            </g>
            <g transform="matrix(152.762,0,0,152.762,5785.42,1438.82)">
                <path d="M0.374,-0.188L0.51,-0.052C0.455,0.003 0.389,0.03 0.312,0.03C0.235,0.03 0.169,0.003 0.114,-0.052C0.059,-0.107 0.031,-0.173 0.031,-0.25C0.031,-0.327 0.059,-0.393 0.114,-0.448C0.169,-0.503 0.235,-0.53 0.312,-0.53C0.389,-0.53 0.455,-0.503 0.51,-0.448L0.374,-0.312C0.357,-0.329 0.336,-0.338 0.312,-0.338C0.287,-0.338 0.267,-0.33 0.25,-0.313C0.233,-0.296 0.224,-0.275 0.224,-0.25C0.224,-0.226 0.233,-0.205 0.25,-0.188C0.267,-0.171 0.287,-0.162 0.312,-0.162C0.336,-0.162 0.357,-0.171 0.374,-0.188Z" style="fill:rgb(255,57,136);fill-rule:nonzero;"/>
            </g>
            <g transform="matrix(152.762,0,0,152.762,5865.17,1438.82)">
                <path d="M0.295,-0.5L0.402,-0.5L0.402,-0.377L0.295,-0.377L0.295,0L0.101,0L0.101,-0.377L0.039,-0.377L0.039,-0.5L0.101,-0.5L0.101,-0.8L0.295,-0.8L0.295,-0.5Z" style="fill:rgb(255,57,136);fill-rule:nonzero;"/>
            </g>
        </g>
    </g>
    <defs>
        <linearGradient id="_Linear1" x1="0" y1="0" x2="1" y2="0" gradientUnits="userSpaceOnUse" gradientTransform="matrix(180.666,0,0,-205.042,648.671,-267.694)"><stop offset="0" style="stop-color:rgb(82,28,207);stop-opacity:1"/><stop offset="0.69" style="stop-color:rgb(255,28,118);stop-opacity:1"/><stop offset="0.91" style="stop-color:rgb(255,108,168);stop-opacity:1"/><stop offset="0.98" style="stop-color:rgb(253,237,26);stop-opacity:1"/><stop offset="1" style="stop-color:rgb(253,237,26);stop-opacity:1"/></linearGradient>
    </defs>
</svg>
