<?xml version="1.0" encoding="UTF-8" standalone="no"?>
<!DOCTYPE svg PUBLIC "-//W3C//DTD SVG 1.1//EN" "http://www.w3.org/Graphics/SVG/1.1/DTD/svg11.dtd">
<svg width="100%" height="100%" viewBox="0 0 146 146" version="1.1" xmlns="http://www.w3.org/2000/svg" xmlns:xlink="http://www.w3.org/1999/xlink" xml:space="preserve" xmlns:serif="http://www.serif.com/" style="fill-rule:evenodd;clip-rule:evenodd;stroke-linejoin:round;stroke-miterlimit:2;">
    <g transform="matrix(1,0,0,1,-7619.44,-1154.3)">
        <g transform="matrix(1.45245,0,0,1.45245,6447.85,1567.39)">
            <rect x="806.621" y="-284.403" width="30.809" height="30.809"/>
        </g>
        <g transform="matrix(1.45245,0,0,1.45245,6447.85,1618)">
            <rect x="806.621" y="-284.403" width="30.809" height="30.809"/>
        </g>
        <g transform="matrix(1.45245,0,0,1.45245,6447.85,1668.61)">
            <rect x="806.621" y="-284.403" width="30.809" height="30.809"/>
        </g>
        <g transform="matrix(1.45245,0,0,1.45245,6498.46,1567.39)">
            <rect x="806.621" y="-284.403" width="30.809" height="30.809"/>
        </g>
        <g transform="matrix(1.45245,0,0,1.45245,6498.46,1618)">
            <rect x="806.621" y="-284.403" width="30.809" height="30.809"/>
        </g>
        <g transform="matrix(1.45245,0,0,1.45245,6498.46,1668.61)">
            <rect x="806.621" y="-284.403" width="30.809" height="30.809"/>
        </g>
        <g transform="matrix(1.45245,0,0,1.45245,6549.07,1567.39)">
            <rect x="806.621" y="-284.403" width="30.809" height="30.809"/>
        </g>
        <g transform="matrix(1.45245,0,0,1.45245,6549.07,1618)">
            <rect x="806.621" y="-284.403" width="30.809" height="30.809"/>
        </g>
        <g transform="matrix(1.45245,0,0,1.45245,6549.07,1668.61)">
            <rect x="806.621" y="-284.403" width="30.809" height="30.809"/>
        </g>
    </g>
</svg>
