<?xml version="1.0" encoding="UTF-8" standalone="no"?>
<!DOCTYPE svg PUBLIC "-//W3C//DTD SVG 1.1//EN" "http://www.w3.org/Graphics/SVG/1.1/DTD/svg11.dtd">
<svg width="100%" height="100%" viewBox="0 0 94 133" version="1.1" xmlns="http://www.w3.org/2000/svg" xmlns:xlink="http://www.w3.org/1999/xlink" xml:space="preserve" xmlns:serif="http://www.serif.com/" style="fill-rule:evenodd;clip-rule:evenodd;stroke-linejoin:round;stroke-miterlimit:2;">
    <g transform="matrix(1,0,0,1,-8963.75,-2447.57)">
        <g transform="matrix(1,0,0,3.35829,8056.84,1280.11)">
            <g transform="matrix(0.259742,0,0,0.0773437,886.906,347.634)">
                <path d="M170.867,512L341.535,512C393.352,511.941 435.344,469.949 435.402,418.133L435.402,251.051C435.57,215.578 408.434,185.938 373.086,182.988L367.133,182.469L367.133,162.133C367.113,156.066 363.863,150.465 358.602,147.441L358.602,25.602C358.602,11.461 347.141,0 333,0C318.863,0 307.402,11.461 307.402,25.602L307.402,147.441C302.141,150.465 298.887,156.066 298.867,162.133L298.867,179.199L290.336,179.199L290.336,119.465C290.324,110.047 282.688,102.41 273.266,102.398L239.133,102.398C229.715,102.41 222.078,110.047 222.066,119.465L222.066,179.199L213.535,179.199L213.535,162.133C213.516,156.066 210.262,150.465 205,147.441L205,25.602C205,11.461 193.539,0 179.402,0C165.262,0 153.801,11.461 153.801,25.602L153.801,147.441C148.539,150.465 145.289,156.066 145.266,162.133L145.266,182.469L139.309,182.988C103.961,185.941 76.828,215.582 77,251.051L77,418.133C77.059,469.949 119.051,511.941 170.867,512ZM350.074,196.266L315.934,196.266L315.934,162.133L350.066,162.133L350.074,196.266ZM324.469,25.602C324.469,20.887 328.289,17.066 333,17.066C337.715,17.066 341.535,20.887 341.535,25.602L341.535,145.066L324.469,145.066L324.469,25.602ZM239.133,119.465L247.668,119.465L247.668,128C247.668,132.711 251.488,136.535 256.199,136.535C260.914,136.535 264.734,132.711 264.734,128L264.734,119.465L273.266,119.465L273.266,213.332C273.262,218.043 269.445,221.863 264.734,221.867L264.734,213.332C264.734,208.621 260.914,204.801 256.199,204.801C251.488,204.801 247.668,208.621 247.668,213.332L247.668,221.867C242.957,221.863 239.137,218.043 239.133,213.332L239.133,119.465ZM196.477,196.266L162.336,196.266L162.336,162.133L196.469,162.133L196.473,187.703L196.469,187.734L196.473,187.766L196.477,196.266ZM170.867,25.602C170.867,20.887 174.687,17.066 179.402,17.066C184.113,17.066 187.934,20.887 187.934,25.602L187.934,145.066L170.867,145.066L170.867,25.602ZM94.066,251.051C94.234,224.559 114.43,202.496 140.801,199.988L145.602,199.57C147.187,207.559 154.187,213.32 162.336,213.332L196.469,213.332C205.887,213.324 213.523,205.688 213.535,196.266L222.066,196.266L222.066,213.332C222.082,227.465 233.535,238.918 247.668,238.934L264.734,238.934C278.867,238.918 290.32,227.465 290.336,213.332L290.336,196.266L298.867,196.266C298.879,205.688 306.512,213.324 315.934,213.332L350.066,213.332C358.211,213.32 365.215,207.559 366.801,199.57L371.594,199.988C397.969,202.492 418.168,224.555 418.336,251.051L418.336,418.133C418.289,460.531 383.93,494.887 341.535,494.934L170.867,494.934C128.473,494.887 94.113,460.531 94.066,418.133L94.066,251.051Z" style="fill:rgb(253,1,232);fill-rule:nonzero;"/>
            </g>
            <g transform="matrix(0.259742,0,0,0.0773437,886.906,347.634)">
                <path d="M153.801,388.266L153.801,448C153.824,469.199 171.004,486.375 192.199,486.398L320.199,486.398C341.398,486.375 358.578,469.199 358.602,448L358.602,388.266C358.578,367.07 341.398,349.891 320.199,349.867L192.199,349.867C171.004,349.891 153.824,367.07 153.801,388.266ZM341.535,388.266L341.535,448C341.523,459.777 331.977,469.32 320.199,469.332L192.199,469.332C180.422,469.32 170.879,459.777 170.867,448L170.867,388.266C170.879,376.488 180.422,366.945 192.199,366.934L320.199,366.934C331.977,366.945 341.523,376.488 341.535,388.266Z" style="fill:rgb(253,1,232);fill-rule:nonzero;"/>
            </g>
            <g transform="matrix(0.259742,0,0,0.0773437,886.906,347.634)">
                <path d="M187.934,392.535C187.934,397.246 191.754,401.066 196.469,401.066L205,401.066C209.715,401.066 213.535,397.246 213.535,392.535C213.535,387.82 209.715,384 205,384L196.469,384C191.754,384 187.934,387.82 187.934,392.535Z" style="fill:rgb(253,1,232);fill-rule:nonzero;"/>
            </g>
            <g transform="matrix(0.259742,0,0,0.0773437,886.906,347.634)">
                <path d="M239.133,401.066L281.801,401.066C286.512,401.066 290.336,397.246 290.336,392.535C290.336,387.82 286.512,384 281.801,384L239.133,384C234.422,384 230.602,387.82 230.602,392.535C230.602,397.246 234.422,401.066 239.133,401.066Z" style="fill:rgb(253,1,232);fill-rule:nonzero;"/>
            </g>
            <g transform="matrix(0.259742,0,0,0.0773437,886.906,347.634)">
                <path d="M162.336,332.801C190.609,332.801 213.535,309.879 213.535,281.602C213.535,253.324 190.609,230.398 162.336,230.398C134.059,230.398 111.133,253.324 111.133,281.602C111.164,309.863 134.07,332.77 162.336,332.801ZM162.336,247.465C181.184,247.465 196.469,262.75 196.469,281.602C196.469,300.453 181.184,315.734 162.336,315.734C143.484,315.734 128.199,300.453 128.199,281.602C128.219,262.758 143.492,247.488 162.336,247.465Z" style="fill:rgb(253,1,232);fill-rule:nonzero;"/>
            </g>
            <g transform="matrix(0.259742,0,0,0.0773437,886.906,347.634)">
                <path d="M170.867,281.602C170.867,286.313 167.047,290.133 162.336,290.133C157.621,290.133 153.801,286.313 153.801,281.602C153.801,276.887 157.621,273.066 162.336,273.066C167.047,273.066 170.867,276.887 170.867,281.602Z" style="fill:rgb(253,1,232);fill-rule:nonzero;"/>
            </g>
            <g transform="matrix(0.259742,0,0,0.0773437,886.906,347.634)">
                <path d="M136.734,358.398C136.734,363.113 132.914,366.934 128.199,366.934C123.488,366.934 119.668,363.113 119.668,358.398C119.668,353.687 123.488,349.867 128.199,349.867C132.914,349.867 136.734,353.687 136.734,358.398Z" style="fill:rgb(253,1,232);fill-rule:nonzero;"/>
            </g>
            <g transform="matrix(0.259742,0,0,0.0773437,886.906,347.634)">
                <path d="M136.734,384C136.734,388.711 132.914,392.535 128.199,392.535C123.488,392.535 119.668,388.711 119.668,384C119.668,379.289 123.488,375.465 128.199,375.465C132.914,375.465 136.734,379.289 136.734,384Z" style="fill:rgb(253,1,232);fill-rule:nonzero;"/>
            </g>
            <g transform="matrix(0.259742,0,0,0.0773437,886.906,347.634)">
                <path d="M136.734,409.602C136.734,414.313 132.914,418.133 128.199,418.133C123.488,418.133 119.668,414.313 119.668,409.602C119.668,404.887 123.488,401.066 128.199,401.066C132.914,401.066 136.734,404.887 136.734,409.602Z" style="fill:rgb(253,1,232);fill-rule:nonzero;"/>
            </g>
            <g transform="matrix(0.259742,0,0,0.0773437,886.906,347.634)">
                <path d="M136.734,435.199C136.734,439.914 132.914,443.734 128.199,443.734C123.488,443.734 119.668,439.914 119.668,435.199C119.668,430.488 123.488,426.668 128.199,426.668C132.914,426.668 136.734,430.488 136.734,435.199Z" style="fill:rgb(253,1,232);fill-rule:nonzero;"/>
            </g>
            <g transform="matrix(0.259742,0,0,0.0773437,886.906,347.634)">
                <path d="M392.734,358.398C392.734,363.113 388.914,366.934 384.199,366.934C379.488,366.934 375.668,363.113 375.668,358.398C375.668,353.687 379.488,349.867 384.199,349.867C388.914,349.867 392.734,353.687 392.734,358.398Z" style="fill:rgb(253,1,232);fill-rule:nonzero;"/>
            </g>
            <g transform="matrix(0.259742,0,0,0.0773437,886.906,347.634)">
                <path d="M392.734,384C392.734,388.711 388.914,392.535 384.199,392.535C379.488,392.535 375.668,388.711 375.668,384C375.668,379.289 379.488,375.465 384.199,375.465C388.914,375.465 392.734,379.289 392.734,384Z" style="fill:rgb(253,1,232);fill-rule:nonzero;"/>
            </g>
            <g transform="matrix(0.259742,0,0,0.0773437,886.906,347.634)">
                <path d="M392.734,409.602C392.734,414.313 388.914,418.133 384.199,418.133C379.488,418.133 375.668,414.313 375.668,409.602C375.668,404.887 379.488,401.066 384.199,401.066C388.914,401.066 392.734,404.887 392.734,409.602Z" style="fill:rgb(253,1,232);fill-rule:nonzero;"/>
            </g>
            <g transform="matrix(0.259742,0,0,0.0773437,886.906,347.634)">
                <path d="M392.734,435.199C392.734,439.914 388.914,443.734 384.199,443.734C379.488,443.734 375.668,439.914 375.668,435.199C375.668,430.488 379.488,426.668 384.199,426.668C388.914,426.668 392.734,430.488 392.734,435.199Z" style="fill:rgb(253,1,232);fill-rule:nonzero;"/>
            </g>
            <g transform="matrix(0.259742,0,0,0.0773437,886.906,347.634)">
                <path d="M350.066,332.801C378.344,332.801 401.266,309.879 401.266,281.602C401.266,253.324 378.344,230.398 350.066,230.398C321.789,230.398 298.867,253.324 298.867,281.602C298.898,309.863 321.805,332.77 350.066,332.801ZM350.066,247.465C368.918,247.465 384.199,262.75 384.199,281.602C384.199,300.453 368.918,315.734 350.066,315.734C331.215,315.734 315.934,300.453 315.934,281.602C315.953,262.758 331.223,247.488 350.066,247.465Z" style="fill:rgb(253,1,232);fill-rule:nonzero;"/>
            </g>
            <g transform="matrix(0.259742,0,0,0.0773437,886.906,347.634)">
                <path d="M358.602,281.602C358.602,286.313 354.781,290.133 350.066,290.133C345.355,290.133 341.535,286.313 341.535,281.602C341.535,276.887 345.355,273.066 350.066,273.066C354.781,273.066 358.602,276.887 358.602,281.602Z" style="fill:rgb(253,1,232);fill-rule:nonzero;"/>
            </g>
            <g transform="matrix(0.259742,0,0,0.0773437,886.906,347.634)">
                <path d="M230.602,315.734C235.313,315.734 239.133,311.914 239.133,307.199L239.133,256C239.133,251.289 235.313,247.465 230.602,247.465C225.887,247.465 222.066,251.289 222.066,256L222.066,307.199C222.066,311.914 225.887,315.734 230.602,315.734Z" style="fill:rgb(253,1,232);fill-rule:nonzero;"/>
            </g>
            <g transform="matrix(0.259742,0,0,0.0773437,886.906,347.634)">
                <path d="M281.801,315.734C286.512,315.734 290.336,311.914 290.336,307.199L290.336,256C290.336,251.289 286.512,247.465 281.801,247.465C277.09,247.465 273.266,251.289 273.266,256L273.266,307.199C273.266,311.914 277.09,315.734 281.801,315.734Z" style="fill:rgb(253,1,232);fill-rule:nonzero;"/>
            </g>
            <g transform="matrix(0.259742,0,0,0.0773437,886.906,347.634)">
                <path d="M247.668,332.801L264.734,332.801C269.445,332.801 273.266,328.98 273.266,324.266C273.266,319.555 269.445,315.734 264.734,315.734L247.668,315.734C242.953,315.734 239.133,319.555 239.133,324.266C239.133,328.98 242.953,332.801 247.668,332.801Z" style="fill:rgb(253,1,232);fill-rule:nonzero;"/>
            </g>
        </g>
    </g>
</svg>
