<?xml version="1.0" encoding="UTF-8" standalone="no"?>
<!DOCTYPE svg PUBLIC "-//W3C//DTD SVG 1.1//EN" "http://www.w3.org/Graphics/SVG/1.1/DTD/svg11.dtd">
<svg width="100%" height="100%" viewBox="0 0 123 133" version="1.1" xmlns="http://www.w3.org/2000/svg" xmlns:xlink="http://www.w3.org/1999/xlink" xml:space="preserve" xmlns:serif="http://www.serif.com/" style="fill-rule:evenodd;clip-rule:evenodd;stroke-linejoin:round;stroke-miterlimit:2;">
    <g transform="matrix(1,0,0,1,-8153.35,-2447.57)">
        <g transform="matrix(1,0,0,3.35829,7846.84,1301.11)">
            <g transform="matrix(0.259742,0,0,0.0773437,301.276,341.38)">
                <path d="M172.41,59.715C172.406,77.514 180.357,94.387 194.091,105.712C172.996,112.108 155.662,127.244 146.477,147.28L134.712,173.029C133.782,175.091 132.068,176.696 129.947,177.489L100.434,188.766L102.683,173.025C103.382,168.129 101.921,163.173 98.684,159.436C95.443,155.699 90.745,153.555 85.798,153.551L70.041,153.551L70.041,68.247C70.041,63.534 66.222,59.715 61.513,59.715C56.8,59.715 52.98,63.534 52.98,68.247L52.98,153.551L37.224,153.551C32.276,153.551 27.575,155.699 24.334,159.436C21.092,163.173 19.632,168.133 20.331,173.029L26.427,215.676C27.661,224.063 34.838,230.292 43.316,230.327L50.856,230.327C51.005,233.283 51.594,236.2 52.598,238.984C58.483,254.409 75.746,262.153 91.175,256.291L167.861,226.949C173.375,224.821 177.99,220.869 180.939,215.746L180.939,263.676L142.35,474.06C140.971,486.204 146.2,498.157 156.056,505.393C165.908,512.625 178.881,514.027 190.053,509.072C201.229,504.113 208.894,493.553 210.148,481.397L230.629,299.843C230.754,298.539 232.633,297.715 233.625,299.953L254.09,481.311C255.883,498.622 270.456,511.786 287.857,511.817C289.11,511.817 290.36,511.747 291.602,511.614C300.665,510.677 308.971,506.143 314.661,499.032C320.346,491.917 322.943,482.815 321.865,473.771L312.821,410.873C318.241,414.474 324.302,417.004 330.671,418.332C334.119,419.047 337.626,419.406 341.148,419.406C361.993,419.379 380.737,406.699 388.519,387.362C396.302,368.02 391.565,345.895 376.55,331.435C380.452,325.292 386.793,321.114 393.974,319.95C395.302,323.5 397.016,326.893 399.09,330.064C406.517,341.435 418.185,349.362 431.49,352.08C455.568,357.094 479.806,344.274 489.213,321.555C498.624,298.836 490.544,272.634 469.977,259.157C449.406,245.681 422.157,248.739 405.084,266.436C398.985,262.52 394.822,256.201 393.627,249.047C413.117,241.773 426.257,223.423 426.87,202.629C427.483,181.835 415.444,162.744 396.415,154.336C377.39,145.925 355.163,149.877 340.203,164.329L319.194,134.722C307.921,118.879 291.043,107.914 271.987,104.048C292.363,85.722 297.639,55.872 284.776,31.673C271.917,7.474 244.223,-4.854 217.634,1.781C191.045,8.415 172.391,32.31 172.41,59.715ZM37.224,170.612L85.798,170.612L79.702,213.266L43.316,213.266L37.224,170.612ZM79.714,213.266L79.706,221.795L79.706,213.266L79.714,213.266ZM301.965,335.168L298.709,312.515C303.445,309.981 307.753,306.72 311.478,302.854C313.114,303.889 314.625,305.107 315.988,306.482C317.16,308.602 318.597,310.559 320.272,312.308C321.639,314.823 322.572,317.549 323.033,320.368C314.871,323.441 307.624,328.533 301.965,335.168ZM281.695,233.978C299.466,237.672 311.232,254.639 308.452,272.579C305.671,290.514 289.325,303.131 271.268,301.273C253.212,299.414 239.779,283.731 240.712,265.605C241.649,247.478 256.625,233.26 274.775,233.267C277.099,233.267 279.418,233.506 281.695,233.978ZM291.836,219.19L291.836,197.517L299.775,210.337L301.801,223.989C298.666,222.033 295.323,220.42 291.836,219.19ZM301.266,488.461C296.928,493.839 289.774,496.068 283.147,494.096C276.525,492.128 271.745,486.357 271.05,479.48L252.298,313.304C261.537,317.998 272.034,319.618 282.257,317.927L289.989,371.543C290.133,373.886 290.442,376.221 290.907,378.521L304.937,475.903C305.445,480.413 304.125,484.935 301.266,488.461ZM374.45,375.12C371.22,390.966 357.295,402.365 341.121,402.392C324.946,402.423 310.978,391.079 307.69,375.241L307.386,373.288C305.339,359.812 311.525,346.41 323.103,339.221C334.685,332.028 349.438,332.43 360.61,340.24C371.786,348.054 377.23,361.772 374.45,375.12ZM448.769,268.545C462.284,271.337 472.785,281.998 475.374,295.556C477.963,309.11 472.132,322.894 460.601,330.474C449.066,338.054 434.102,337.94 422.688,330.185C411.27,322.43 405.646,308.563 408.442,295.048C412.277,276.605 430.318,264.745 448.769,268.545ZM391.729,291.584C390.948,295.431 390.608,299.351 390.722,303.272C379.186,305.33 368.998,312.031 362.539,321.809C360.079,320.669 357.529,319.728 354.917,318.993C355.858,318.536 356.776,318.029 357.658,317.47C358.834,316.748 359.958,315.955 361.032,315.088C361.743,314.491 362.356,313.893 362.774,313.472C364.902,311.468 366.686,309.125 368.049,306.54C368.588,305.658 369.049,304.728 369.432,303.772C371.134,299.906 371.958,295.708 371.849,291.487C371.829,290.218 371.743,288.952 371.591,287.695L366.191,251.363C369.326,251.98 372.513,252.3 375.707,252.316C376.117,252.316 376.523,252.257 376.933,252.25C378.991,263.785 385.684,273.973 395.458,280.443C393.791,284.001 392.537,287.742 391.729,291.584ZM382.498,167.711C398.297,170.944 409.672,184.807 409.766,200.93C409.856,217.058 398.637,231.046 382.873,234.459C378.23,235.501 373.419,235.528 368.764,234.529C366.96,234.142 365.183,233.619 363.457,232.967L359.525,206.522L390.577,212.95C391.147,213.063 391.729,213.122 392.315,213.118C396.692,213.122 400.359,209.81 400.8,205.452C401.245,201.098 398.321,197.115 394.033,196.233L360.618,189.321C359.247,189.071 357.83,189.169 356.506,189.602C355.768,187.095 354.632,184.725 353.144,182.573L350.165,178.379C358.248,169.281 370.588,165.208 382.498,167.711ZM256.605,119.43C275.943,119.434 294.081,128.813 305.269,144.589L339.285,192.531C340.043,193.585 340.535,194.807 340.722,196.096L354.663,289.804C354.745,290.471 354.788,291.143 354.796,291.819C354.827,293.693 354.468,295.552 353.734,297.278C353.476,297.641 353.246,298.024 353.046,298.422C352.5,299.48 351.769,300.437 350.891,301.237C350.637,301.487 350.391,301.749 350.321,301.819C349.751,302.272 349.153,302.686 348.532,303.065C347.989,303.401 347.423,303.694 346.834,303.94C346.502,304.022 346.178,304.139 345.873,304.291C345.498,304.346 344.311,304.604 343.948,304.713C340.328,305.205 336.665,304.143 333.869,301.792C332.733,300 331.468,298.289 330.081,296.684C329.734,295.798 329.496,294.872 329.371,293.927L325.864,269.896L325.848,269.841C326.172,263.211 325.192,256.584 322.962,250.332L316.644,207.78C316.273,205.503 315.469,203.32 314.27,201.348L290.555,163.048C288.548,159.811 284.635,158.296 280.968,159.339C277.306,160.385 274.775,163.732 274.775,167.543L274.775,216.211C258.499,216.195 243.192,223.931 233.55,237.04C223.905,250.149 221.082,267.065 225.94,282.599C219.192,284.915 214.4,290.94 213.666,298.039L193.185,479.57C192.173,488.801 183.961,495.529 174.71,494.702C165.459,493.874 158.571,485.794 159.215,476.528L197.859,265.995C197.956,265.484 198.003,264.968 197.999,264.449L197.999,179.145C197.999,175.173 195.262,171.733 191.396,170.835C187.53,169.937 183.559,171.827 181.809,175.388L166.432,206.741C165.459,208.697 163.796,210.216 161.765,211.017L85.095,240.351C78.476,242.854 71.08,239.535 68.546,232.924C68.304,232.076 68.151,231.206 68.085,230.327L79.706,230.327C88.18,230.292 95.357,224.067 96.591,215.679L97.677,208.088L135.938,193.468C142.279,191.086 147.418,186.291 150.23,180.129L161.999,154.364C171.738,133.105 192.958,119.461 216.341,119.43L256.605,119.43ZM232.121,17.065C255.68,17.065 274.775,36.16 274.775,59.715C274.775,83.274 255.68,102.369 232.121,102.369C208.566,102.369 189.471,83.274 189.471,59.715C189.498,36.172 208.578,17.092 232.121,17.065Z" style="fill:rgb(253,1,232);fill-rule:nonzero;"/>
            </g>
            <g transform="matrix(0.259742,0,0,0.0773437,301.276,341.38)">
                <path d="M269.886,248.954L262.97,282.373C262.513,284.587 262.951,286.894 264.197,288.788C265.438,290.678 267.383,291.998 269.597,292.455C270.171,292.568 270.753,292.627 271.335,292.627C275.376,292.623 278.86,289.784 279.684,285.825L286.592,252.406C287.209,249.422 286.185,246.334 283.913,244.307C281.636,242.28 278.45,241.62 275.556,242.577C272.663,243.538 270.499,245.963 269.882,248.95L269.886,248.954Z" style="fill:rgb(253,1,232);fill-rule:nonzero;"/>
            </g>
            <g transform="matrix(0.259742,0,0,0.0773437,301.276,341.38)">
                <path d="M359.478,363.307L326.063,356.399C321.447,355.442 316.933,358.41 315.976,363.026C315.024,367.642 317.991,372.156 322.603,373.108L356.018,380.02C356.592,380.134 357.174,380.192 357.756,380.192C362.133,380.192 365.8,376.881 366.245,372.523C366.69,368.169 363.766,364.186 359.478,363.303L359.478,363.307Z" style="fill:rgb(253,1,232);fill-rule:nonzero;"/>
            </g>
            <g transform="matrix(0.259742,0,0,0.0773437,301.276,341.38)">
                <path d="M436.671,327.014C437.245,327.131 437.827,327.186 438.409,327.186C442.451,327.182 445.938,324.343 446.754,320.384L453.67,286.969C454.287,283.985 453.268,280.896 450.991,278.87C448.714,276.843 445.528,276.183 442.634,277.14C439.741,278.1 437.577,280.529 436.96,283.513L430.049,316.928C429.588,319.142 430.029,321.45 431.271,323.344C432.513,325.237 434.457,326.557 436.671,327.014Z" style="fill:rgb(253,1,232);fill-rule:nonzero;"/>
            </g>
        </g>
    </g>
</svg>
