<?xml version="1.0" encoding="UTF-8" standalone="no"?>
<!DOCTYPE svg PUBLIC "-//W3C//DTD SVG 1.1//EN" "http://www.w3.org/Graphics/SVG/1.1/DTD/svg11.dtd">
<svg width="100%" height="100%" viewBox="0 0 131 131" version="1.1" xmlns="http://www.w3.org/2000/svg" xmlns:xlink="http://www.w3.org/1999/xlink" xml:space="preserve" xmlns:serif="http://www.serif.com/" style="fill-rule:evenodd;clip-rule:evenodd;stroke-linejoin:round;stroke-miterlimit:2;">
    <g transform="matrix(1,0,0,1,-1490.5,-4160.01)">
        <g transform="matrix(1,0,0,3.35829,-5.66285,3000.34)">
            <g transform="matrix(0.259742,0,0,0.0773437,1496.16,345.275)">
                <path d="M317.841,472.449C360.474,514.923 429.449,514.837 471.977,472.258C514.501,429.683 514.505,360.705 471.985,318.122L471.969,318.106L471.961,318.102L471.938,318.075L471.871,318.02C436.278,282.4 380.872,275.898 338.004,302.321C314.063,273.643 314.204,231.907 338.34,203.392C381.254,229.577 436.528,222.904 471.977,187.263L471.985,187.252C512.32,146.995 514.856,82.469 477.811,39.164C440.766,-4.14 376.626,-11.625 330.605,21.99C284.585,55.605 272.202,118.98 302.184,167.443C273.4,191.751 231.228,191.572 202.65,167.026C231.618,119.741 220.621,58.263 177.059,23.953C133.496,-10.357 71.152,-6.642 31.976,32.601C-7.204,71.843 -10.817,134.191 23.563,177.699C57.942,221.206 119.44,232.102 166.678,203.056C191.166,231.649 191.322,273.779 167.045,302.555C118.644,272.749 55.457,285.19 21.963,331.121C-11.528,377.048 -4.058,441.012 39.114,477.991C82.286,514.966 146.64,512.515 186.873,472.359L186.881,472.352C222.478,436.879 229.132,381.633 202.966,338.726C231.477,314.528 273.272,314.387 301.942,338.391C275.508,381.309 282.048,436.774 317.743,472.363L317.751,472.371L317.771,472.398L317.841,472.449ZM329.587,329.977C331.62,327.948 333.7,326.079 335.819,324.331L384.173,372.685C381.559,373.828 379.174,375.44 377.141,377.446C375.108,379.487 373.442,381.863 372.216,384.47L323.948,336.198C325.688,334.098 327.554,332.01 329.587,329.977ZM388.923,401.094C386.273,398.281 385.961,393.996 388.173,390.827C390.39,387.662 394.522,386.484 398.074,388.013C401.625,389.539 403.615,393.348 402.842,397.133C402.066,400.919 398.741,403.642 394.878,403.654L394.854,403.654C392.614,403.635 390.476,402.714 388.923,401.094ZM412.805,377.43C412.235,374.176 416.27,361.957 430.483,347.823C444.403,333.833 456.543,329.72 459.961,330.129C460.387,333.603 456.258,345.692 442.272,359.608L442.241,359.643C427.981,373.973 415.65,377.93 412.805,377.43ZM460.125,460.488C429.542,490.876 382.035,496.129 345.552,473.159C355.062,468.426 363.698,462.112 371.096,454.49C381.157,445.129 388.638,433.332 392.825,420.239C393.5,420.298 394.163,420.423 394.854,420.423L394.924,420.423C401.558,420.419 407.915,417.753 412.567,413.024L412.587,413.004L412.606,412.989C413.519,412.048 414.354,411.037 415.111,409.968C415.314,409.695 415.576,409.461 415.767,409.18C418.557,405.067 420.044,400.208 420.036,395.237C420.036,395.085 419.993,394.94 419.993,394.788C419.982,394.23 419.888,393.684 419.841,393.133C432.941,388.985 444.746,381.528 454.112,371.479C461.733,364.076 468.043,355.429 472.765,345.911C495.75,382.386 490.509,429.902 460.125,460.488ZM329.747,460.344C329.329,456.871 333.454,444.781 347.471,430.826C361.727,416.497 374.09,412.563 376.903,413.035C377.473,416.294 373.442,428.504 359.257,442.615L359.225,442.643C345.31,456.641 333.267,460.851 329.747,460.344ZM394.901,302.91C412.364,302.934 429.464,307.925 444.192,317.306C434.674,322.032 426.03,328.338 418.627,335.964C410.382,343.913 403.72,353.356 399.006,363.795L349.946,314.739C363.666,307.004 379.147,302.93 394.901,302.91ZM413.164,128.092C416.91,127.924 428.75,132.181 442.288,145.715C456.207,159.635 460.34,171.744 459.926,175.213C456.539,175.642 444.352,171.498 430.432,157.574C416.895,144.037 412.653,132.275 412.809,128.447L413.164,128.092ZM400.778,116.069C397.465,119.237 392.243,119.237 388.93,116.069L388.926,116.065C387.35,114.5 386.464,112.365 386.472,110.141C386.507,108.752 386.893,107.394 387.6,106.196L390.913,102.882C392.111,102.18 393.465,101.794 394.854,101.755C398.249,101.755 401.305,103.799 402.604,106.933C403.9,110.067 403.182,113.672 400.778,116.069ZM372.447,121.352C373.621,123.78 375.182,126 377.067,127.928L377.071,127.928L377.071,127.932C379.225,130.066 381.75,131.791 384.521,133.02L336.201,181.332C333.965,179.478 331.753,177.515 329.599,175.404C327.835,173.64 326.145,171.802 324.526,169.882C324.428,169.773 324.35,169.648 324.256,169.535L372.447,121.352ZM350.316,190.94L399.182,142.074C403.908,152.31 410.483,161.586 418.573,169.434C425.999,177.047 434.662,183.353 444.192,188.075C415.786,206.159 379.768,207.255 350.316,190.936L350.316,190.94ZM394.858,17.955C428.5,17.885 459.501,36.167 475.727,65.634C491.949,95.105 490.814,131.077 472.765,159.467C468.047,149.941 461.753,141.282 454.147,133.859C444.754,123.795 432.93,116.314 419.814,112.139C419.868,111.468 420.013,110.82 420.013,110.141C420.071,103.14 417.152,96.447 411.982,91.729C406.811,87.008 399.88,84.709 392.915,85.404C388.77,72.198 381.266,60.292 371.139,50.852C363.713,43.246 355.058,36.952 345.532,32.234C360.295,22.907 377.399,17.959 394.858,17.955ZM376.915,92.205C373.489,92.689 361.344,88.487 347.421,74.567C333.497,60.643 329.368,48.538 329.786,45.073C333.208,44.6 345.356,48.792 359.284,62.711C373.208,76.631 377.332,88.736 376.919,92.205L376.915,92.205ZM316.935,60.803C321.653,70.333 327.952,78.996 335.565,86.422C343.643,94.777 353.27,101.481 363.904,106.168L314.567,155.51C297.744,125.942 298.657,89.493 316.939,60.803L316.935,60.803ZM127.697,92.205C127.284,88.736 131.42,76.623 145.336,62.707C159.248,48.792 171.412,44.597 174.83,45.069C175.244,48.538 171.104,60.651 157.192,74.567C143.28,88.483 131.135,92.678 127.697,92.205ZM115.518,104.104C115.584,104.178 115.682,104.252 115.76,104.326C118.968,107.596 118.937,112.837 115.69,116.065L115.686,116.069C112.373,119.241 107.148,119.241 103.834,116.065C100.541,112.837 100.482,107.554 103.706,104.256C106.925,100.955 112.209,100.884 115.518,104.1L115.518,104.104ZM127.549,127.936L127.549,127.932L127.553,127.932C129.559,125.887 131.202,123.514 132.404,120.915L180.668,169.18C178.928,171.283 177.063,173.363 175.029,175.4C172.996,177.437 170.908,179.303 168.793,181.051L120.533,132.782C123.132,131.577 125.504,129.938 127.549,127.932L127.549,127.936ZM190.26,155.057L141.184,105.977C151.623,101.279 161.078,94.644 169.047,86.422C176.657,79 182.951,70.34 187.669,60.811C205.823,89.353 206.818,125.563 190.26,155.057ZM44.491,44.885C75.062,14.455 122.613,9.206 159.092,32.234C149.562,36.948 140.903,43.242 133.481,50.852C123.35,60.288 115.85,72.194 111.702,85.404C104.74,84.709 97.805,87.008 92.635,91.726C87.464,96.447 84.545,103.14 84.607,110.141C84.607,110.82 84.748,111.472 84.803,112.143C71.687,116.318 59.862,123.795 50.473,133.859C42.868,141.282 36.573,149.941 31.859,159.463C8.874,122.991 14.111,75.48 44.491,44.885ZM91.823,128.08C92.237,131.545 88.1,143.658 74.184,157.574C60.272,171.49 48.085,175.638 44.694,175.209C44.28,171.74 48.421,159.631 62.333,145.715C76.245,131.799 88.463,127.643 91.823,128.08ZM60.44,188.063C69.966,183.342 78.621,177.043 86.043,169.43C94.266,161.473 100.915,152.029 105.637,141.606L154.675,190.639C125.184,207.193 88.982,206.206 60.44,188.063ZM103.834,401.161C102.254,399.592 101.368,397.461 101.376,395.237C101.411,393.847 101.801,392.489 102.504,391.288L105.817,387.978C107.015,387.276 108.373,386.886 109.762,386.851C111.986,386.843 114.121,387.729 115.686,389.305L115.69,389.313C117.263,390.882 118.148,393.016 118.148,395.237C118.144,397.461 117.259,399.596 115.686,401.164C112.373,404.337 107.148,404.333 103.834,401.161ZM128.072,413.18C131.885,412.954 143.658,417.27 157.196,430.807C171.111,444.727 175.248,456.836 174.834,460.305C171.427,460.758 159.26,456.59 145.336,442.666C131.803,429.129 127.561,417.367 127.713,413.539L128.072,413.18ZM132.638,384.899C131.409,382.129 129.684,379.604 127.553,377.446L127.549,377.446L127.549,377.442C125.606,375.557 123.354,374.023 120.888,372.903L169.16,324.631C171.182,326.321 173.133,328.081 174.963,329.911C177.113,332.104 179.092,334.336 180.953,336.584L132.638,384.899ZM155.123,314.961L105.848,364.236C101.13,353.622 94.406,344.014 86.047,335.944C78.617,328.327 69.946,322.024 60.409,317.31C89.08,298.953 125.578,298.048 155.123,314.961ZM91.827,377.297C88.475,377.801 76.256,373.586 62.333,359.659C48.409,345.735 44.272,333.634 44.694,330.169C48.093,329.72 60.268,333.88 74.188,347.807C88.108,361.731 92.237,373.832 91.823,377.297L91.827,377.297ZM44.511,460.508C14.119,429.917 8.866,382.394 31.851,345.907C36.569,355.432 42.864,364.092 50.473,371.518C59.866,381.571 71.691,389.036 84.806,393.192C84.752,393.879 84.607,394.542 84.607,395.237C84.607,409.129 95.87,420.391 109.762,420.391C110.441,420.391 111.089,420.247 111.76,420.196C115.936,433.308 123.417,445.133 133.477,454.526C140.895,462.131 149.547,468.43 159.069,473.152C122.593,496.121 75.093,490.88 44.507,460.508L44.511,460.508ZM187.689,444.586C182.967,435.053 176.668,426.385 169.055,418.955C161.207,410.862 151.935,404.286 141.699,399.561L190.557,350.699C206.877,380.158 205.772,416.181 187.681,444.586L187.689,444.586ZM193.179,325.013C191.213,322.692 189.113,320.389 186.881,318.11C184.918,316.147 182.869,314.259 180.742,312.444C209.218,277.76 209.085,227.747 180.426,193.215C182.616,191.361 184.774,189.375 186.893,187.26C189,185.148 190.982,182.994 192.844,180.805C227.388,209.417 277.365,209.542 312.05,181.098C313.876,183.24 315.792,185.316 317.802,187.326C320.038,189.515 322.309,191.583 324.615,193.531C296.311,227.942 296.167,277.525 324.268,312.1C322.051,313.978 319.87,315.983 317.728,318.122C315.601,320.256 313.599,322.434 311.722,324.647C277.139,296.589 227.583,296.741 193.175,325.013L193.179,325.013ZM314.372,350.332L363.413,399.381C352.986,404.091 343.55,410.741 335.608,418.975C327.979,426.382 321.665,435.037 316.943,444.563C298.809,416.021 297.818,379.822 314.368,350.332L314.372,350.332Z" style="fill:white;fill-rule:nonzero;"/>
            </g>
            <g transform="matrix(0.259742,0,0,0.0773437,1496.16,345.275)">
                <path d="M269.081,227.532L235.54,227.532C230.908,227.532 227.153,231.286 227.153,235.918C227.153,240.55 230.908,244.305 235.54,244.305L269.081,244.305C273.709,244.305 277.463,240.55 277.463,235.918C277.463,231.286 273.709,227.532 269.081,227.532Z" style="fill:white;fill-rule:nonzero;"/>
            </g>
            <g transform="matrix(0.259742,0,0,0.0773437,1496.16,345.275)">
                <path d="M269.081,261.073L235.54,261.073C230.908,261.073 227.153,264.827 227.153,269.459C227.153,274.091 230.908,277.845 235.54,277.845L269.081,277.845C273.709,277.845 277.463,274.091 277.463,269.459C277.463,264.827 273.709,261.073 269.081,261.073Z" style="fill:white;fill-rule:nonzero;"/>
            </g>
        </g>
    </g>
</svg>
