<?xml version="1.0" encoding="UTF-8" standalone="no"?>
<!DOCTYPE svg PUBLIC "-//W3C//DTD SVG 1.1//EN" "http://www.w3.org/Graphics/SVG/1.1/DTD/svg11.dtd">
<svg width="100%" height="100%" viewBox="0 0 133 133" version="1.1" xmlns="http://www.w3.org/2000/svg" xmlns:xlink="http://www.w3.org/1999/xlink" xml:space="preserve" xmlns:serif="http://www.serif.com/" style="fill-rule:evenodd;clip-rule:evenodd;stroke-linejoin:round;stroke-miterlimit:2;">
    <g transform="matrix(1,0,0,1,-8538.75,-2447.61)">
        <g transform="matrix(1,0,0,3.35829,7851.63,1293.86)">
            <g transform="matrix(0.259742,0,0,0.0773437,687.12,343.54)">
                <path d="M256,196.381C270.136,196.381 281.592,184.924 281.592,170.793C281.592,156.657 270.136,145.201 256,145.201C241.869,145.201 230.412,156.657 230.412,170.793C230.427,184.917 241.876,196.366 256,196.381ZM256,162.261C260.713,162.261 264.532,166.08 264.532,170.793C264.532,175.502 260.713,179.321 256,179.321C251.291,179.321 247.472,175.502 247.472,170.793C247.476,166.084 251.295,162.269 256,162.261Z" style="fill:rgb(253,1,232);fill-rule:nonzero;"/>
            </g>
            <g transform="matrix(0.259742,0,0,0.0773437,687.12,343.54)">
                <path d="M494.846,418.167L494.846,179.321C494.831,165.193 483.382,153.748 469.258,153.733L435.138,153.733L435.138,91.545C443.197,93.126 451.39,93.95 459.605,94.005C474.643,94.719 489.485,90.397 501.785,81.724C511.192,74.067 514.523,61.185 510.005,49.931C509.931,49.681 509.841,49.435 509.747,49.193C506.561,40.489 498.4,34.597 489.134,34.308L435.138,34.308L435.138,30.044C435.138,13.554 421.768,0.187 405.281,0.187C388.791,0.187 375.425,13.554 375.425,30.044L375.425,34.308L321.429,34.308C312.167,34.597 304.01,40.485 300.816,49.181C300.718,49.412 300.644,49.642 300.566,49.888C296.028,61.142 299.348,74.039 308.754,81.704C321.058,90.393 335.908,94.723 350.954,94.008C359.169,93.95 367.362,93.126 375.425,91.545L375.425,119.608L324.245,119.608C315.361,119.327 306.673,116.977 298.859,112.74C271.904,99.151 240.1,99.151 213.141,112.74C205.331,116.977 196.639,119.327 187.759,119.608L136.579,119.608L136.579,91.545C144.642,93.126 152.835,93.946 161.054,94.005C176.084,94.723 190.926,90.4 203.226,81.72C212.633,74.07 215.968,61.185 211.45,49.931C211.376,49.681 211.29,49.435 211.188,49.189C207.994,40.489 199.837,34.601 190.575,34.308L136.579,34.308L136.579,30.044C136.579,13.554 123.213,0.187 106.723,0.187C90.233,0.187 76.866,13.554 76.866,30.044L76.866,34.308L22.871,34.308C13.608,34.597 5.447,40.485 2.257,49.185C2.167,49.412 2.085,49.646 2.015,49.88C-2.526,61.134 0.785,74.031 10.192,81.697C22.5,90.385 37.357,94.715 52.407,94.001C60.618,93.942 68.807,93.122 76.866,91.545L76.866,153.733L42.746,153.733C28.618,153.748 17.17,165.193 17.154,179.321L17.154,418.167C7.735,418.179 0.105,425.809 0.094,435.227L0.094,469.348C0.121,492.894 19.204,511.973 42.746,512L469.258,512C492.8,511.973 511.879,492.894 511.906,469.348L511.906,435.227C511.899,425.809 504.265,418.179 494.846,418.167ZM477.786,179.321L477.786,418.167L460.726,418.167L460.726,204.913C460.718,195.495 453.084,187.861 443.666,187.853L335.131,187.853C348.142,179.009 363.016,173.284 378.6,171.125C383.586,181.414 394.039,187.923 405.477,187.853C416.91,187.779 427.285,181.145 432.143,170.793L469.258,170.793C473.967,170.797 477.782,174.612 477.786,179.321ZM341.305,418.167L68.338,418.167L68.338,204.913L198.611,204.913C204.32,209.72 208.799,215.823 211.673,222.715C213.965,232.298 222.54,239.049 232.392,239.034L246.609,239.034C242.532,258.874 225.078,273.127 204.82,273.154L160.598,273.154C157.091,263.095 147.735,256.246 137.083,255.945C126.434,255.645 116.707,261.951 112.635,271.795C108.566,281.639 110.995,292.975 118.746,300.285C126.497,307.591 137.957,309.355 147.548,304.713L205.222,362.387C206.971,373.953 216.378,382.84 228.026,383.93C239.674,385.019 250.565,378.03 254.43,366.987L351.407,366.987C355.354,378.213 366.534,385.226 378.358,383.887C390.185,382.547 399.518,373.215 400.853,361.391C402.193,349.567 395.184,338.384 383.953,334.436L383.953,305.704C395.707,301.55 402.755,289.531 400.646,277.25C398.538,264.965 387.889,255.984 375.425,255.984C362.961,255.984 352.309,264.965 350.204,277.25C348.095,289.531 355.144,301.55 366.893,305.704L366.893,334.436C359.669,337.013 353.98,342.699 351.407,349.927L254.43,349.927C251.342,341.039 243.598,334.588 234.301,333.159C225.004,331.73 215.675,335.557 210.064,343.109L159.606,292.647C159.977,291.854 160.309,291.042 160.598,290.214L204.82,290.214C234.469,290.163 259.596,268.374 263.849,239.034L279.609,239.034C289.461,239.049 298.036,232.298 300.328,222.715C303.205,215.823 307.684,209.72 313.393,204.913L443.666,204.913L443.666,418.167L341.305,418.167ZM327.501,435.227L321.328,447.574C319.891,450.472 316.935,452.299 313.702,452.288L198.302,452.288C195.069,452.299 192.113,450.472 190.676,447.574L184.503,435.227L327.501,435.227ZM142.577,287.684L142.514,287.777C139.133,291.073 133.725,291.022 130.405,287.66C127.086,284.298 127.102,278.89 130.444,275.548C133.783,272.209 139.191,272.193 142.553,275.512C145.915,278.828 145.966,284.24 142.67,287.621L142.577,287.684ZM221.88,358.455C221.88,353.745 225.699,349.927 230.412,349.927C235.121,349.927 238.94,353.745 238.94,358.455C238.94,363.168 235.121,366.987 230.412,366.987C225.703,366.979 221.888,363.164 221.88,358.455ZM375.425,290.214C370.712,290.214 366.893,286.395 366.893,281.686C366.893,276.973 370.712,273.154 375.425,273.154C380.134,273.154 383.953,276.973 383.953,281.686C383.949,286.391 380.134,290.21 375.425,290.214ZM375.425,349.927C380.134,349.927 383.953,353.745 383.953,358.455C383.953,363.168 380.134,366.987 375.425,366.987C370.712,366.987 366.893,363.168 366.893,358.455C366.901,353.749 370.716,349.93 375.425,349.927ZM405.281,83.321C409.53,84.82 413.794,86.175 418.074,87.39L418.074,157.997C418.074,165.065 412.345,170.793 405.281,170.793C398.214,170.793 392.485,165.065 392.485,157.997L392.485,87.386C396.761,86.168 401.029,84.813 405.281,83.321ZM392.485,30.044C392.485,22.976 398.214,17.247 405.281,17.247C412.345,17.247 418.074,22.976 418.074,30.044L418.074,34.308L392.485,34.308L392.485,30.044ZM319.071,68.116C315.717,64.929 314.729,59.978 316.595,55.749C316.677,55.562 316.747,55.37 316.81,55.171C317.505,53.133 319.293,51.665 321.429,51.376L489.134,51.376C491.262,51.661 493.042,53.121 493.741,55.152C493.808,55.351 493.886,55.558 493.964,55.749C495.838,59.99 494.839,64.949 491.473,68.131C482.452,75.004 464.424,81.419 429.843,72.946C422.521,71.142 415.305,68.928 408.233,66.312C407.835,66.218 407.429,66.155 407.023,66.124C405.898,65.769 404.692,65.769 403.567,66.124C403.149,66.155 402.739,66.218 402.333,66.315C395.266,68.928 388.053,71.142 380.736,72.946C346.119,81.415 328.107,75.012 319.071,68.116ZM187.759,136.673C199.044,136.411 210.118,133.549 220.119,128.312C242.634,116.711 269.37,116.711 291.885,128.312C301.882,133.549 312.956,136.411 324.245,136.673L375.425,136.673L375.425,154.272C348.841,159.133 324.221,171.55 304.51,190.04C304.26,190.255 304.018,190.485 303.795,190.731C294.755,198.115 287.84,207.768 283.752,218.697C283.295,220.618 281.581,221.969 279.609,221.973L232.392,221.973C230.42,221.969 228.709,220.618 228.249,218.697C224.164,207.768 217.245,198.115 208.209,190.731C207.983,190.485 207.744,190.255 207.494,190.04C187.783,171.55 163.163,159.133 136.579,154.272L136.579,136.673L187.759,136.673ZM93.927,157.997L93.927,87.382C98.218,86.16 102.482,84.801 106.723,83.313C110.959,84.809 115.223,86.164 119.519,87.382L119.519,157.997C119.519,165.065 113.79,170.793 106.723,170.793C99.655,170.793 93.927,165.065 93.927,157.997ZM93.927,30.044C93.927,22.976 99.655,17.247 106.723,17.247C113.79,17.247 119.519,22.976 119.519,30.044L119.519,34.308L93.927,34.308L93.927,30.044ZM20.512,68.108C17.158,64.925 16.17,59.974 18.04,55.745C18.114,55.558 18.189,55.362 18.251,55.163C18.95,53.125 20.735,51.657 22.871,51.368L190.575,51.368C192.699,51.661 194.484,53.121 195.183,55.152C195.249,55.351 195.323,55.546 195.401,55.741C197.275,59.982 196.276,64.945 192.902,68.127C183.886,74.992 165.865,81.4 131.284,72.946C123.962,71.134 116.742,68.92 109.667,66.308C109.269,66.218 108.866,66.155 108.46,66.124C107.312,65.761 106.078,65.765 104.93,66.132C104.54,66.159 104.149,66.222 103.767,66.308C96.699,68.92 89.491,71.134 82.173,72.938C47.576,81.415 29.556,75 20.512,68.108ZM34.214,179.321C34.222,174.612 38.037,170.797 42.746,170.793L79.861,170.793C84.719,181.145 95.094,187.779 106.527,187.853C117.961,187.923 128.418,181.414 133.404,171.125C148.985,173.284 163.862,179.009 176.873,187.853L68.338,187.853C58.92,187.861 51.286,195.495 51.278,204.913L51.278,418.167L34.214,418.167L34.214,179.321ZM469.258,494.94L42.746,494.94C28.618,494.924 17.17,483.475 17.154,469.348L110.987,469.348C115.7,469.348 119.519,465.529 119.519,460.82C119.519,456.106 115.7,452.288 110.987,452.288L17.154,452.288L17.154,435.227L165.428,435.227L175.412,455.204C179.723,463.897 188.599,469.379 198.302,469.348L313.702,469.348C323.401,469.379 332.277,463.897 336.588,455.204L346.576,435.227L494.846,435.227L494.846,452.288L401.013,452.288C396.304,452.288 392.485,456.106 392.485,460.82C392.485,465.529 396.304,469.348 401.013,469.348L494.846,469.348C494.831,483.475 483.382,494.924 469.258,494.94Z" style="fill:rgb(253,1,232);fill-rule:nonzero;"/>
            </g>
            <g transform="matrix(0.259742,0,0,0.0773437,687.12,343.54)">
                <path d="M153.639,452.288L145.107,452.288C140.398,452.288 136.579,456.106 136.579,460.82C136.579,465.529 140.398,469.348 145.107,469.348L153.639,469.348C158.348,469.348 162.167,465.529 162.167,460.82C162.167,456.106 158.348,452.288 153.639,452.288Z" style="fill:rgb(253,1,232);fill-rule:nonzero;"/>
            </g>
            <g transform="matrix(0.259742,0,0,0.0773437,687.12,343.54)">
                <path d="M366.893,452.288L358.365,452.288C353.652,452.288 349.833,456.106 349.833,460.82C349.833,465.529 353.652,469.348 358.365,469.348L366.893,469.348C371.606,469.348 375.425,465.529 375.425,460.82C375.425,456.106 371.606,452.288 366.893,452.288Z" style="fill:rgb(253,1,232);fill-rule:nonzero;"/>
            </g>
        </g>
    </g>
</svg>
