<?xml version="1.0" encoding="UTF-8" standalone="no"?>
<!DOCTYPE svg PUBLIC "-//W3C//DTD SVG 1.1//EN" "http://www.w3.org/Graphics/SVG/1.1/DTD/svg11.dtd">
<svg width="100%" height="100%" viewBox="0 0 795 167" version="1.1" xmlns="http://www.w3.org/2000/svg" xmlns:xlink="http://www.w3.org/1999/xlink" xml:space="preserve" xmlns:serif="http://www.serif.com/" style="fill-rule:evenodd;clip-rule:evenodd;stroke-linejoin:round;stroke-miterlimit:2;">
    <g transform="matrix(1,0,0,1,-2250.57,-1936.05)">
        <g transform="matrix(0.625386,0,0,0.623828,1741.41,-1112.84)">
            <path d="M875.639,5154.11L814.151,5154.11C814.151,5154.11 826.07,5121.38 832.241,5104.43C834.77,5097.48 839.873,5091.77 846.495,5088.48C846.495,5088.48 846.495,5088.48 846.495,5088.48C848.682,5087.4 851.09,5086.83 853.533,5086.83C853.533,5086.83 853.533,5086.83 853.533,5086.83C865.892,5086.83 875.926,5076.8 875.926,5064.44C875.926,5058.41 873.542,5052.94 869.667,5048.92C862.038,5041.01 859.584,5029.44 863.343,5019.12C866.207,5011.22 869.546,5002.02 872.912,4992.76C873.42,4991.36 873.381,4989.82 872.802,4988.45C871.982,4986.59 871.56,4984.53 871.56,4982.36C871.56,4976.13 875.08,4970.7 880.24,4967.97C881.54,4967.29 882.539,4966.15 883.04,4964.78C888.228,4950.64 892.013,4940.24 892.013,4940.24L933.699,4940.24C937.342,4940.24 940.704,4938.28 942.497,4935.11C942.497,4935.11 942.497,4935.11 942.497,4935.11C944.314,4931.89 945.575,4928.39 946.228,4924.74C948.073,4914.24 957.248,4906.26 968.275,4906.26C980.633,4906.26 990.667,4916.29 990.667,4928.65C990.667,4941.01 980.633,4951.04 968.275,4951.04C968.274,4951.04 968.274,4951.04 968.274,4951.04C965.832,4951.04 963.423,4951.61 961.237,4952.7C961.237,4952.7 961.237,4952.7 961.236,4952.7C958.403,4954.11 957.079,4957.42 958.161,4960.39C958.161,4960.39 969.297,4990.98 973.049,5001.28C973.736,5003.17 975.413,5004.52 977.403,5004.79C977.832,5004.81 978.211,5004.86 978.468,5004.91C985.184,5006.34 990.228,5012.31 990.228,5019.45C990.228,5023.07 988.929,5026.39 986.77,5028.98C985.214,5030.86 984.773,5033.44 985.61,5035.73C988.248,5043.03 993.396,5057.17 993.396,5057.17C993.956,5058.71 995.264,5059.86 996.863,5060.21C998.463,5060.57 1000.13,5060.08 1001.29,5058.92C1001.29,5058.92 1001.29,5058.92 1001.29,5058.92C1003.67,5056.54 1005.69,5053.63 1007.35,5050.68C1008.64,5048.39 1009.54,5045.9 1010,5043.32C1011.31,5035.86 1017.83,5030.19 1025.66,5030.19C1034.44,5030.19 1041.57,5037.31 1041.57,5046.09C1041.57,5054.87 1034.44,5062 1025.66,5062C1025.66,5062 1025.66,5062 1025.66,5062C1023.93,5062 1022.21,5062.4 1020.66,5063.17C1017.42,5064.78 1014.49,5066.4 1012.67,5067.77C1009.89,5069.86 1006.75,5074.16 1004.4,5077.78C1003.94,5078.49 1003.56,5079.24 1003.26,5080.04C1003.26,5080.04 1003.26,5080.04 1003.26,5080.04C1002.77,5081.41 1002.77,5082.92 1003.27,5084.29C1003.27,5084.29 1017.11,5122.32 1019.85,5129.82C1019.96,5130.12 1020.19,5130.36 1020.49,5130.47C1020.79,5130.59 1021.13,5130.56 1021.41,5130.41C1022.43,5129.85 1023.61,5129.54 1024.86,5129.54C1028.95,5129.54 1032.28,5132.87 1032.28,5136.96C1032.28,5140.52 1029.77,5143.5 1026.42,5144.22C1026.12,5144.28 1025.85,5144.48 1025.7,5144.75C1025.54,5145.03 1025.52,5145.36 1025.62,5145.65C1026.57,5148.3 1028.68,5154.1 1028.69,5154.11L967.202,5154.11L958.513,5130.72L906.129,5130.72L921.011,5089.95L943.81,5089.95L921.42,5027.8L875.639,5154.11ZM970.976,4955.13C975.073,4955.13 978.399,4958.45 978.399,4962.55C978.399,4966.65 975.073,4969.97 970.976,4969.97C966.88,4969.97 963.554,4966.65 963.554,4962.55C963.554,4958.45 966.88,4955.13 970.976,4955.13ZM925.948,4887.39C934.15,4887.39 940.81,4894.04 940.81,4902.25C940.81,4910.45 934.15,4917.11 925.948,4917.11C917.746,4917.11 911.087,4910.45 911.087,4902.25C911.087,4894.04 917.746,4887.39 925.948,4887.39Z" style="fill:url(#_Linear1);"/>
        </g>
        <g transform="matrix(0.888338,0,0,0.886125,2221.44,1298.03)">
            <g transform="matrix(123.458,0,0,123.458,214.321,870.908)">
                <path d="M0.419,-0.192L0.351,-0.192L0.306,-0.07L0.463,-0.07L0.489,0L0.673,0L0.44,-0.64L0.264,-0.64L0.031,0L0.215,0L0.352,-0.378L0.419,-0.192Z" style="fill-rule:nonzero;"/>
            </g>
            <g transform="matrix(123.458,0,0,123.458,297.037,870.908)">
                <path d="M0.036,-0.205C0.037,-0.168 0.046,-0.136 0.064,-0.11C0.081,-0.084 0.104,-0.063 0.132,-0.046C0.16,-0.029 0.191,-0.017 0.226,-0.01C0.261,-0.002 0.295,0.002 0.33,0.002C0.363,0.002 0.396,-0.002 0.431,-0.01C0.465,-0.017 0.496,-0.029 0.524,-0.046C0.552,-0.062 0.575,-0.083 0.593,-0.108C0.611,-0.133 0.62,-0.164 0.62,-0.2C0.62,-0.229 0.613,-0.253 0.599,-0.273C0.585,-0.293 0.568,-0.309 0.547,-0.322C0.526,-0.335 0.505,-0.345 0.482,-0.352C0.459,-0.359 0.439,-0.365 0.422,-0.369C0.38,-0.379 0.346,-0.388 0.321,-0.395C0.296,-0.402 0.274,-0.409 0.257,-0.416C0.248,-0.42 0.239,-0.425 0.232,-0.43C0.225,-0.435 0.221,-0.443 0.221,-0.454C0.221,-0.465 0.225,-0.473 0.233,-0.48C0.24,-0.486 0.25,-0.491 0.261,-0.495C0.272,-0.498 0.283,-0.501 0.295,-0.502C0.307,-0.503 0.317,-0.504 0.326,-0.504C0.356,-0.504 0.38,-0.499 0.399,-0.488C0.418,-0.476 0.433,-0.46 0.445,-0.439L0.62,-0.439C0.619,-0.476 0.61,-0.507 0.593,-0.533C0.575,-0.559 0.552,-0.58 0.524,-0.597C0.496,-0.613 0.465,-0.625 0.43,-0.632C0.395,-0.639 0.361,-0.643 0.326,-0.643C0.293,-0.643 0.26,-0.639 0.226,-0.631C0.191,-0.624 0.16,-0.612 0.132,-0.595C0.104,-0.578 0.081,-0.557 0.063,-0.532C0.045,-0.507 0.036,-0.476 0.036,-0.44C0.036,-0.413 0.042,-0.389 0.055,-0.369C0.068,-0.349 0.084,-0.332 0.103,-0.318C0.122,-0.304 0.144,-0.293 0.167,-0.285C0.19,-0.277 0.213,-0.272 0.234,-0.269C0.268,-0.26 0.299,-0.252 0.328,-0.245C0.356,-0.238 0.38,-0.229 0.399,-0.22C0.408,-0.215 0.417,-0.211 0.424,-0.207C0.431,-0.204 0.435,-0.197 0.435,-0.186C0.435,-0.175 0.431,-0.167 0.424,-0.161C0.416,-0.155 0.406,-0.15 0.396,-0.147C0.385,-0.144 0.373,-0.141 0.361,-0.141C0.349,-0.14 0.339,-0.139 0.33,-0.139C0.3,-0.139 0.276,-0.145 0.257,-0.156C0.238,-0.167 0.223,-0.184 0.211,-0.205L0.036,-0.205Z" style="fill-rule:nonzero;"/>
            </g>
            <g transform="matrix(123.458,0,0,123.458,377.532,870.908)">
                <path d="M0.58,-0.64L0.041,-0.64L0.041,-0.504L0.221,-0.504L0.221,0L0.4,0L0.4,-0.504L0.58,-0.504L0.58,-0.64Z" style="fill-rule:nonzero;"/>
            </g>
            <g transform="matrix(123.458,0,0,123.458,454.323,870.908)">
                <path d="M0.041,-0.64L0.041,0L0.22,0L0.22,-0.504L0.348,-0.504C0.371,-0.504 0.388,-0.498 0.401,-0.487C0.414,-0.475 0.42,-0.461 0.42,-0.446C0.42,-0.43 0.417,-0.418 0.411,-0.409C0.406,-0.4 0.399,-0.394 0.39,-0.39C0.381,-0.385 0.372,-0.383 0.363,-0.382C0.354,-0.381 0.346,-0.381 0.339,-0.381L0.22,-0.381L0.22,-0.258L0.317,-0.258C0.336,-0.249 0.352,-0.239 0.366,-0.227C0.38,-0.214 0.392,-0.198 0.402,-0.179C0.411,-0.159 0.419,-0.135 0.424,-0.106C0.429,-0.077 0.431,-0.041 0.431,0L0.599,0C0.599,-0.026 0.598,-0.053 0.597,-0.08C0.595,-0.107 0.591,-0.133 0.586,-0.159C0.581,-0.184 0.573,-0.208 0.562,-0.231C0.551,-0.253 0.536,-0.272 0.517,-0.288C0.546,-0.305 0.567,-0.327 0.58,-0.354C0.593,-0.381 0.599,-0.413 0.599,-0.451C0.599,-0.476 0.595,-0.499 0.587,-0.522C0.578,-0.545 0.567,-0.565 0.552,-0.582C0.537,-0.599 0.519,-0.613 0.498,-0.624C0.476,-0.635 0.454,-0.64 0.429,-0.64L0.041,-0.64Z" style="fill-rule:nonzero;"/>
            </g>
            <g transform="matrix(123.458,0,0,123.458,533.459,870.908)">
                <path d="M0.036,-0.321C0.036,-0.276 0.045,-0.234 0.062,-0.196C0.079,-0.157 0.102,-0.122 0.131,-0.093C0.16,-0.064 0.195,-0.041 0.234,-0.024C0.273,-0.007 0.315,0.002 0.359,0.002C0.403,0.002 0.445,-0.007 0.484,-0.024C0.523,-0.041 0.558,-0.064 0.587,-0.093C0.616,-0.122 0.639,-0.157 0.656,-0.196C0.673,-0.234 0.681,-0.276 0.681,-0.321C0.681,-0.366 0.673,-0.407 0.656,-0.447C0.639,-0.486 0.616,-0.52 0.587,-0.549C0.558,-0.578 0.523,-0.601 0.484,-0.618C0.445,-0.634 0.403,-0.643 0.359,-0.643C0.315,-0.643 0.273,-0.634 0.234,-0.618C0.195,-0.601 0.16,-0.578 0.131,-0.549C0.102,-0.52 0.079,-0.486 0.062,-0.447C0.045,-0.407 0.036,-0.366 0.036,-0.321ZM0.214,-0.321C0.214,-0.343 0.217,-0.364 0.224,-0.383C0.231,-0.402 0.24,-0.419 0.253,-0.433C0.266,-0.447 0.281,-0.458 0.299,-0.466C0.317,-0.474 0.337,-0.478 0.359,-0.478C0.381,-0.478 0.401,-0.474 0.419,-0.466C0.436,-0.458 0.451,-0.447 0.464,-0.433C0.477,-0.419 0.486,-0.402 0.493,-0.383C0.5,-0.364 0.503,-0.343 0.503,-0.321C0.503,-0.299 0.5,-0.278 0.493,-0.259C0.486,-0.24 0.477,-0.223 0.464,-0.209C0.451,-0.194 0.436,-0.183 0.419,-0.175C0.401,-0.167 0.381,-0.163 0.359,-0.163C0.337,-0.163 0.317,-0.167 0.299,-0.175C0.281,-0.183 0.266,-0.194 0.253,-0.209C0.24,-0.223 0.231,-0.24 0.224,-0.259C0.217,-0.278 0.214,-0.299 0.214,-0.321Z" style="fill-rule:nonzero;"/>
            </g>
            <g transform="matrix(123.458,0,0,123.458,619.015,870.908)">
                <path d="M0.58,-0.64L0.041,-0.64L0.041,-0.504L0.221,-0.504L0.221,0L0.4,0L0.4,-0.504L0.58,-0.504L0.58,-0.64Z" style="fill-rule:nonzero;"/>
            </g>
            <g transform="matrix(123.458,0,0,123.458,695.806,870.908)">
                <path d="M0.041,-0.64L0.041,0L0.575,0L0.575,-0.136L0.22,-0.136L0.22,-0.504L0.572,-0.504L0.572,-0.64L0.041,-0.64ZM0.271,-0.381L0.271,-0.259L0.54,-0.259L0.54,-0.381L0.271,-0.381Z" style="fill-rule:nonzero;"/>
            </g>
            <g transform="matrix(123.458,0,0,123.458,771.362,870.908)">
                <path d="M0.565,0L0.565,-0.141L0.396,-0.141C0.375,-0.141 0.353,-0.146 0.331,-0.157C0.308,-0.167 0.288,-0.181 0.27,-0.198C0.251,-0.215 0.236,-0.234 0.225,-0.256C0.213,-0.277 0.207,-0.299 0.207,-0.321C0.207,-0.343 0.213,-0.365 0.225,-0.386C0.236,-0.406 0.251,-0.425 0.27,-0.442C0.288,-0.459 0.308,-0.472 0.331,-0.482C0.353,-0.492 0.375,-0.497 0.396,-0.497L0.565,-0.497L0.565,-0.64L0.338,-0.64C0.295,-0.64 0.255,-0.632 0.218,-0.615C0.181,-0.598 0.15,-0.576 0.123,-0.547C0.096,-0.518 0.074,-0.485 0.059,-0.446C0.044,-0.407 0.036,-0.366 0.036,-0.321C0.036,-0.276 0.044,-0.234 0.059,-0.196C0.074,-0.157 0.096,-0.123 0.123,-0.094C0.15,-0.065 0.181,-0.042 0.218,-0.025C0.255,-0.008 0.295,0 0.338,0L0.565,0Z" style="fill-rule:nonzero;"/>
            </g>
            <g transform="matrix(123.458,0,0,123.458,846.301,870.908)">
                <path d="M0.041,-0.64L0.041,0L0.22,0L0.22,-0.64L0.041,-0.64ZM0.444,-0.319L0.657,-0.64L0.455,-0.64L0.245,-0.319L0.454,0L0.657,0L0.444,-0.319Z" style="fill-rule:nonzero;"/>
            </g>
        </g>
    </g>
    <defs>
        <linearGradient id="_Linear1" x1="0" y1="0" x2="1" y2="0" gradientUnits="userSpaceOnUse" gradientTransform="matrix(212.394,-212.925,212.394,212.925,801.983,5150.55)"><stop offset="0" style="stop-color:rgb(94,127,4);stop-opacity:1"/><stop offset="1" style="stop-color:rgb(150,192,35);stop-opacity:1"/></linearGradient>
    </defs>
</svg>
